<?xml version="1.0" encoding="utf-8"?>
<!-- Generator: Adobe Illustrator 23.0.0, SVG Export Plug-In . SVG Version: 6.00 Build 0)  -->
<svg version="1.1" id="Layer_1" xmlns="http://www.w3.org/2000/svg" xmlns:xlink="http://www.w3.org/1999/xlink" x="0px" y="0px"
	 viewBox="0 0 1899 4000" style="enable-background:new 0 0 1899 4000;" xml:space="preserve">
<style type="text/css">
	.st0{fill:#F5F6F6;}
	.st1{fill:#00CA69;}
	.st2{fill:#822EFF;}
	.st3{fill:#252864;}
</style>
<g>
	<rect x="-17.5" y="-29.5" class="st0" width="1945" height="4039"/>
	<path d="M1927-29v4038H-17V-29H1927 M1928-30H-18v4040h1946V-30L1928-30z"/>
</g>
<circle class="st1" cx="1592.86" cy="304.79" r="17"/>
<circle class="st1" cx="1640.67" cy="297.93" r="6"/>
<circle class="st1" cx="1754.11" cy="159.56" r="11.5"/>
<circle class="st2" cx="1544.5" cy="735.5" r="4.5"/>
<circle class="st3" cx="744" cy="390" r="7"/>
<g>
	<circle class="st2" cx="119" cy="937" r="21"/>
	<circle class="st1" cx="111.5" cy="1401.5" r="11.5"/>
	<circle class="st2" cx="93.5" cy="906.5" r="4.5"/>
</g>
<circle class="st1" cx="744" cy="1708" r="17"/>
<circle class="st2" cx="752" cy="2157" r="21"/>
<circle class="st1" cx="787" cy="1730" r="6"/>
<circle class="st3" cx="79" cy="1857" r="7"/>
<circle class="st2" cx="119.5" cy="2993.5" r="40.5"/>
<circle class="st3" cx="150" cy="2528" r="7"/>
<circle class="st1" cx="1155.5" cy="2659.5" r="11.5"/>
<circle class="st3" cx="773" cy="2869" r="7"/>
<circle class="st1" cx="1610" cy="3702" r="17"/>
<circle class="st1" cx="1029" cy="3815" r="6"/>
<circle class="st3" cx="69" cy="189" r="7"/>
<circle class="st1" cx="577.16" cy="3481.73" r="11.5"/>
<circle class="st1" cx="1102.22" cy="1049.03" r="6"/>
<circle class="st1" cx="1758.85" cy="1208.4" r="11.5"/>
<circle class="st1" cx="1785.63" cy="2207.43" r="17"/>
<circle class="st1" cx="1175.38" cy="1992.86" r="11.5"/>
<circle class="st3" cx="1778.5" cy="503.5" r="31.5"/>
<circle class="st3" cx="1786" cy="1736" r="24"/>
<circle class="st3" cx="1250.5" cy="1442.5" r="4.5"/>
<circle class="st2" cx="1786" cy="3014" r="21"/>
</svg>
